<svg width="22" height="22" viewBox="0 0 22 22" fill="none" xmlns="http://www.w3.org/2000/svg">
<g clip-path="url(#clip0)">
<path d="M21.9945 22V21.9991H22V13.9306C22 9.98342 21.1503 6.94284 16.5358 6.94284C14.3174 6.94284 12.8288 8.16017 12.221 9.31426H12.1569V7.31134H7.78162V21.9991H12.3374V14.7263C12.3374 12.8113 12.7004 10.9597 15.0719 10.9597C17.4084 10.9597 17.4433 13.145 17.4433 14.8491V22H21.9945Z" fill="white"/>
<path d="M0.363037 7.31226H4.92437V22H0.363037V7.31226Z" fill="white"/>
<path d="M2.64183 0C1.18342 0 0 1.18342 0 2.64183C0 4.10025 1.18342 5.30842 2.64183 5.30842C4.10025 5.30842 5.28367 4.10025 5.28367 2.64183C5.28275 1.18342 4.09933 0 2.64183 0V0Z" fill="white"/>
</g>
<defs>
<clipPath id="clip0">
<rect width="22" height="22" fill="white"/>
</clipPath>
</defs>
</svg>
